# xmcd
#
# Track frame offsets: 
#        150
#        15517
#        33488
#        46250
#        65221
#        82119
#        98079
#        122097
#        139092
#        155823
#        172219
#        190681
#        208528
#        233356
#        249118
#        261445
#        277948
#        293284
#        312994
#
# Disc length: 4364 seconds
#
# Revision: 0
# Processed by: cddbd v1.5.2PL0 Copyright (c) Steve Scherf et al.
# Submitted via: ExactAudioCopyFreeDBPlugin 1.0
#
DISCID=07110a13
DTITLE=Paul Carrack - The Story so Far
DYEAR=2014
DGENRE=Blues
TTITLE0=How Long
TTITLE1=Tempted
TTITLE2=I Need You
TTITLE3=Silent Running
TTITLE4=Don't shed a tear
TTITLE5=When you walk in the room
TTITLE6=The living years
TTITLE7=Battlefield
TTITLE8=Dedicated
TTITLE9=Over my Shoulder
TTITLE10=Love will keep us alive
TTITLE11=Eyes of Blue
TTITLE12=Beautiful World
TTITLE13=Satisfy my Soul
TTITLE14=Groovin
TTITLE15=Any Day Now
TTITLE16=Where did I go wrong
TTITLE17=It Aint Over
TTITLE18=What a wonderful world
EXTD=
EXTT0=
EXTT1=
EXTT2=
EXTT3=
EXTT4=
EXTT5=
EXTT6=
EXTT7=
EXTT8=
EXTT9=
EXTT10=
EXTT11=
EXTT12=
EXTT13=
EXTT14=
EXTT15=
EXTT16=
EXTT17=
EXTT18=
PLAYORDER=
